<svg xmlns="http://www.w3.org/2000/svg" xmlns:xlink="http://www.w3.org/1999/xlink" width="500" zoomAndPan="magnify" viewBox="0 0 375 374.999991" height="500" preserveAspectRatio="xMidYMid meet" version="1.0"><defs><clipPath id="96662b7bad"><path d="M 24.375 0 L 350.625 0 L 350.625 375 L 24.375 375 Z M 24.375 0 " clip-rule="nonzero"/></clipPath></defs><g clip-path="url(#96662b7bad)"><path fill="#ff5757" d="M 50.828125 252.203125 C 79.96875 296.824219 130.34375 326.375 187.5 326.375 C 277.445312 326.375 350.625 253.203125 350.625 163.25 C 350.625 73.300781 277.445312 0.125 187.5 0.125 C 97.554688 0.125 24.375 73.300781 24.375 163.25 L 24.375 374.875 L 50.828125 374.875 Z M 227.179688 163.25 C 227.179688 141.371094 244.976562 123.574219 266.859375 123.574219 C 288.738281 123.574219 306.539062 141.371094 306.539062 163.25 C 306.539062 185.132812 288.738281 202.929688 266.859375 202.929688 C 244.976562 202.929688 227.179688 185.132812 227.179688 163.25 Z M 227.179688 242.609375 C 227.179688 264.488281 209.378906 282.289062 187.5 282.289062 C 165.621094 282.289062 147.820312 264.488281 147.820312 242.609375 C 147.820312 220.730469 165.621094 202.929688 187.5 202.929688 C 209.378906 202.929688 227.179688 220.730469 227.179688 242.609375 Z M 187.5 123.574219 C 165.621094 123.574219 147.820312 105.773438 147.820312 83.894531 C 147.820312 62.011719 165.621094 44.214844 187.5 44.214844 C 209.378906 44.214844 227.179688 62.011719 227.179688 83.894531 C 227.179688 105.773438 209.378906 123.574219 187.5 123.574219 Z M 147.820312 163.25 C 147.820312 185.132812 130.023438 202.929688 108.140625 202.929688 C 86.261719 202.929688 68.460938 185.132812 68.460938 163.25 C 68.460938 141.371094 86.261719 123.574219 108.140625 123.574219 C 130.023438 123.574219 147.820312 141.371094 147.820312 163.25 Z M 147.820312 163.25 " fill-opacity="1" fill-rule="nonzero"/></g></svg>